<svg width="48" height="48" viewBox="0 0 48 48" fill="none" xmlns="http://www.w3.org/2000/svg">
<g filter="url(#filter0_d_2_25)">
<path fill-rule="evenodd" clip-rule="evenodd" d="M23.9468 39.5106C34.9631 39.5106 43.8936 30.6659 43.8936 19.7553C43.8936 8.84476 34.9631 0 23.9468 0C12.9305 0 4 8.84476 4 19.7553C4 30.6659 12.9305 39.5106 23.9468 39.5106Z" fill="#F5F6FA" fill-opacity="0.01"/>
<mask id="mask0_2_25" style="mask-type:luminance" maskUnits="userSpaceOnUse" x="4" y="0" width="40" height="40">
<path fill-rule="evenodd" clip-rule="evenodd" d="M23.9468 39.5106C34.9631 39.5106 43.8936 30.6659 43.8936 19.7553C43.8936 8.84476 34.9631 0 23.9468 0C12.9305 0 4 8.84476 4 19.7553C4 30.6659 12.9305 39.5106 23.9468 39.5106Z" fill="white"/>
</mask>
<g mask="url(#mask0_2_25)">
</g>
<path d="M35.1701 13.8615C34.4246 14.1919 33.6247 14.4159 32.7842 14.5159C33.6424 14.002 34.2993 13.1869 34.6106 12.2186C33.8056 12.6945 32.9171 13.0401 31.9703 13.2274C31.2122 12.4186 30.1338 11.9149 28.9376 11.9149C26.6429 11.9149 24.7823 13.7755 24.7823 16.069C24.7823 16.3943 24.819 16.7119 24.8899 17.0157C21.437 16.8423 18.3752 15.188 16.326 12.6743C15.9678 13.2869 15.7641 14.0007 15.7641 14.7627C15.7641 16.2044 16.4982 17.4765 17.612 18.2207C16.9311 18.1979 16.2906 18.0106 15.7299 17.6992V17.7511C15.7299 19.7636 17.1627 21.4432 19.0625 21.8255C18.7145 21.9191 18.3474 21.971 17.9677 21.971C17.6994 21.971 17.4399 21.9444 17.1855 21.8938C17.7145 23.5456 19.2486 24.7467 21.0662 24.7797C19.6448 25.8935 17.8525 26.5555 15.9058 26.5555C15.5704 26.5555 15.2401 26.5352 14.9148 26.4985C16.7539 27.6794 18.9373 28.368 21.2839 28.368C28.9276 28.368 33.1057 22.0368 33.1057 16.5462L33.0918 16.0082C33.9082 15.426 34.6144 14.6944 35.1701 13.8615Z" fill="#010002"/>
<mask id="mask1_2_25" style="mask-type:luminance" maskUnits="userSpaceOnUse" x="14" y="11" width="22" height="18">
<path d="M35.1701 13.8615C34.4246 14.1919 33.6247 14.4159 32.7842 14.5159C33.6424 14.002 34.2993 13.1869 34.6106 12.2186C33.8056 12.6945 32.9171 13.0401 31.9703 13.2274C31.2122 12.4186 30.1338 11.9149 28.9376 11.9149C26.6429 11.9149 24.7823 13.7755 24.7823 16.069C24.7823 16.3943 24.819 16.7119 24.8899 17.0157C21.437 16.8423 18.3752 15.188 16.326 12.6743C15.9678 13.2869 15.7641 14.0007 15.7641 14.7627C15.7641 16.2044 16.4982 17.4765 17.612 18.2207C16.9311 18.1979 16.2906 18.0106 15.7299 17.6992V17.7511C15.7299 19.7636 17.1627 21.4432 19.0625 21.8255C18.7145 21.9191 18.3474 21.971 17.9677 21.971C17.6994 21.971 17.4399 21.9444 17.1855 21.8938C17.7145 23.5456 19.2486 24.7467 21.0662 24.7797C19.6448 25.8935 17.8525 26.5555 15.9058 26.5555C15.5704 26.5555 15.2401 26.5352 14.9148 26.4985C16.7539 27.6794 18.9373 28.368 21.2839 28.368C28.9276 28.368 33.1057 22.0368 33.1057 16.5462L33.0918 16.0082C33.9082 15.426 34.6144 14.6944 35.1701 13.8615Z" fill="white"/>
</mask>
<g mask="url(#mask1_2_25)">
<rect x="11.3403" y="7.14893" width="26.2128" height="26.2128" fill="white"/>
</g>
</g>
<defs>
<filter id="filter0_d_2_25" x="0" y="0" width="48" height="48" filterUnits="userSpaceOnUse" color-interpolation-filters="sRGB">
<feFlood flood-opacity="0" result="BackgroundImageFix"/>
<feColorMatrix in="SourceAlpha" type="matrix" values="0 0 0 0 0 0 0 0 0 0 0 0 0 0 0 0 0 0 127 0" result="hardAlpha"/>
<feOffset dy="4"/>
<feGaussianBlur stdDeviation="2"/>
<feComposite in2="hardAlpha" operator="out"/>
<feColorMatrix type="matrix" values="0 0 0 0 0 0 0 0 0 0 0 0 0 0 0 0 0 0 0.25 0"/>
<feBlend mode="normal" in2="BackgroundImageFix" result="effect1_dropShadow_2_25"/>
<feBlend mode="normal" in="SourceGraphic" in2="effect1_dropShadow_2_25" result="shape"/>
</filter>
</defs>
</svg>
